<?xml version="1.0" encoding="utf-8"?>
<!-- Generator: Adobe Illustrator 28.4.1, SVG Export Plug-In . SVG Version: 6.00 Build 0)  -->
<svg version="1.1" id="Layer_1" xmlns="http://www.w3.org/2000/svg" xmlns:xlink="http://www.w3.org/1999/xlink" x="0px" y="0px"
	 viewBox="0 0 150 150" style="enable-background:new 0 0 150 150;" xml:space="preserve">
<g>
	<g>
		<path d="M48.5,76.8c0-0.9,0-1.7,0-2.6c0-0.6,0.4-1.1,0.9-1.3c0.3-0.1,0.8,0.2,1.3,0.4c0.2,0.1,0.4,0.2,0.2,0.5
			c-1.2,2.2-0.3,4.6-0.5,6.9c-0.1,1.4-0.4,2.8,0.7,4.1c0.5,0.6,0.1,1.4-0.4,2c-0.6,0.6-0.6,1.4-0.1,1.9c1.1,1.1,1,2.4,1,3.7
			c0,0.3,0,0.5,0,0.8c0,3.5,0,3.5-3.6,3.2c-0.6-0.1-0.8-0.2-0.8-0.8c0-1.7,0-3.3,0-5c0-0.6,0.3-1,0.6-1.3c0.8-0.9,1-1.7,0.1-2.7
			c-0.5-0.6-0.6-1.4-0.1-2c1.2-1.5,0.4-3.3,0.6-4.9c0.1-0.4-0.3-0.6-0.7-0.7c-0.6-0.3-1.2-0.5-1.8-0.9c-2.1-1.1-3.2-2.8-3.1-5.3
			c0.1-2.4,1.4-4,3.4-4.9c6.4-2.9,12.8-5.8,19.3-8.7c3.4-1.5,6.8-3.1,10.1-4.6c0.8-0.4,1.5-0.4,2.3,0c9.3,4.3,18.6,8.5,28,12.7
			c0.4,0.2,1,0.2,1,0.8c0,0.4-0.6,0.5-1,0.7c-9.3,4.2-18.5,8.4-27.8,12.7c-1,0.4-1.8,0.4-2.8,0c-8.2-3.8-16.5-7.5-24.7-11.3
			c-1-0.4-1.9-0.9-3.1-0.5c-1.6,0.5-2.5,1.5-2.8,3c-0.3,1.5,0.5,2.7,1.8,3.5C47.1,76.5,47.7,76.8,48.5,76.8z"/>
		<path d="M52,78.7c4,1.8,7.9,3.6,11.9,5.4c3.9,1.8,7.9,3.6,11.8,5.4c0.8,0.4,1.5,0.3,2.3,0c9.2-4.2,18.3-8.4,27.5-12.5
			c0.5-0.2,1-0.4,1.5-0.6c0.5,1.5,0,2.2-1.4,2.8c-3,1.3-5.9,2.7-8.8,4c-0.8,0.3-1.1,0.7-1,1.6c0.1,2.3,0,4.6,0,7
			c0,1.1-0.3,1.8-1.3,2.4c-11.8,7.1-23.7,7.1-35.5,0c-0.9-0.5-1.3-1.2-1.3-2.3c0.1-2.4,0-4.7,0-7.1c0-0.8-0.3-1.2-1-1.5
			c-1.1-0.4-2.1-1.1-3.2-1.4C52.1,81.2,51.5,80.3,52,78.7z"/>
	</g>
	<path d="M52.8,38.2c-0.6,0-1,0-1.3,0c-0.3,0-0.8,0.1-1.6,0.2c0-0.7,0.2-1.5,0.6-2.4c0.4-0.9,0.8-1.7,1.3-2.5c0.5-0.8,1.1-1.5,1.7-2
		c0.6-0.6,1.1-0.8,1.5-0.8c1.3,0,3,0.4,5,1.3c2,0.8,4.1,2,6.1,3.5c2.1,1.5,4,3.2,5.7,5.2c1.8,2,3,4.1,3.8,6.4l0.2-0.6
		c0.5-2.1,1-4,1.6-5.9c0.6-1.9,1.5-3.6,2.6-5c1.2-1.4,2.8-2.6,4.9-3.4c2.1-0.8,4.9-1.3,8.3-1.3c1.4,0,2.6,0,3.6-0.1
		c0.9-0.1,1.8-0.2,2.7-0.5c0.8-0.3,1.8-0.7,2.7-1.3c1-0.6,2.2-1.4,3.6-2.5c0.7,0,1,0.2,1,0.5c0,1.1-0.6,2.2-1.7,3.6
		c-1.1,1.3-2.5,2.6-4.2,3.7c-1.6,1.2-3.3,2.1-5.1,2.9c-1.8,0.8-3.3,1.1-4.7,1.1c-1.8,0-3.5,0.4-5.1,1.1c-1.6,0.7-3,1.7-4.3,2.8
		c-1.2,1.2-2.2,2.5-2.9,3.9c-0.7,1.4-1.1,2.8-1.1,4.1c0,0.4-0.2,0.8-0.8,1c-0.5,0.3-0.9,0.4-1.1,0.4c-0.5,0-1.1-0.6-1.7-1.7
		c-0.9-1.7-2.2-3.3-4-4.7c-1.8-1.4-3.7-2.6-5.7-3.6c-2.1-1-4.1-1.8-6.2-2.4C56.3,38.5,54.4,38.2,52.8,38.2z"/>
	<path d="M81,30.6c-1,1.7-2.2,2.9-3.4,3.7c-1.3,0.8-2.5,1.2-3.7,1.2c-1.2,0-2.5-0.4-3.8-1.3c-1.3-0.9-2.5-2.1-3.6-3.7v-0.4
		c0-0.1,0-0.1,0.1-0.2c0,0,0.2-0.1,0.4-0.1c0.2,0,0.4,0,0.6,0.1c0.8,0.5,1.6,0.8,2.2,1.1c0.6,0.3,1.2,0.5,1.6,0.6
		c0.5,0.2,0.9,0.3,1.3,0.3c0.4,0,0.8,0.1,1.2,0.1c0.6,0,1.1,0,1.5-0.1c0.4,0,0.8-0.1,1.2-0.2c0.4-0.1,0.7-0.2,1.1-0.4
		c0.4-0.2,0.8-0.4,1.4-0.6c0.2-0.1,0.5-0.2,0.7-0.4c0.2-0.1,0.5-0.2,0.8-0.4h0c0.1-0.1,0.2-0.1,0.3-0.1h-0.1c0,0,0.1,0,0.2,0
		c0.1,0,0.1,0,0.2,0c0.1,0,0.2,0,0.2,0C81.3,30.1,81.2,30.3,81,30.6z M79.5,23.8c0,0.4-0.1,1-0.4,1.7c-0.3,0.7-0.7,1.3-1.2,2
		c-0.5,0.6-1.1,1.2-1.9,1.6c-0.7,0.5-1.5,0.7-2.5,0.7c-0.5,0-1.1-0.1-1.8-0.3c-0.6-0.2-1.2-0.4-1.8-0.7c-0.5-0.3-1-0.7-1.4-1.2
		c-0.4-0.5-0.6-1-0.6-1.7c0-0.4,0.1-0.9,0.4-1.6c0.2-0.7,0.6-1.3,1.1-2c0.5-0.7,1.1-1.2,1.8-1.7c0.7-0.5,1.5-0.7,2.4-0.7
		c0.5,0,1.1,0.1,1.8,0.3c0.7,0.2,1.3,0.4,1.9,0.7c0.6,0.3,1.1,0.7,1.5,1.2C79.3,22.7,79.5,23.2,79.5,23.8z M71.6,22.2
		c-0.2,0-0.4,0.1-0.5,0.4C71,22.9,71,23.2,71,23.5c0,1.2,0.4,2.2,1.3,2.9c0.9,0.7,2.1,1.1,3.6,1.1c0.2,0,0.4-0.1,0.5-0.4
		c0.1-0.2,0.2-0.5,0.2-0.9c0-1.2-0.4-2.2-1.3-2.9C74.4,22.6,73.2,22.2,71.6,22.2z"/>
	<path d="M75,115.7c9.7-11.2,22.7-16.2,36.8-18.6c12.2-2.1,24.5-1.7,36.8-0.3c1.3,0.2,1.8,0.4,1.1,1.8c-1.2,2.9-2.3,5.9-3.3,8.8
		c-0.4,1.3-1,1.4-2.2,1.1c-10.5-2.8-21.2-4.2-32.1-4.1c-11.3,0.2-22.2,2.1-32,7.9C78.3,113.4,76.7,114.6,75,115.7z"/>
	<path d="M75,115.7c-9.7-11.2-22.7-16.2-36.8-18.6C26,95,13.7,95.3,1.4,96.8c-1.3,0.2-1.8,0.4-1.1,1.8c1.2,2.9,2.3,5.9,3.3,8.8
		c0.4,1.3,1,1.4,2.2,1.1c10.5-2.8,21.2-4.2,32.1-4.1c11.3,0.2,22.2,2.1,32,7.9C71.7,113.4,73.3,114.6,75,115.7z"/>
	<path d="M74.5,118H0.8c-0.5,0-0.8-0.4-0.8-0.8v-4.2c0-0.5,0.4-0.8,0.8-0.8h73.6c0.5,0,0.8,0.4,0.8,0.8v4.2
		C75.3,117.6,74.9,118,74.5,118z"/>
	<path d="M149.2,118h-73c-0.5,0-0.8-0.4-0.8-0.8v-4.2c0-0.5,0.4-0.8,0.8-0.8h73c0.5,0,0.8,0.4,0.8,0.8v4.2
		C150,117.6,149.6,118,149.2,118z"/>
	<circle cx="75" cy="112.6" r="5.4"/>
</g>
</svg>
