<svg width="193" height="192" viewBox="0 0 193 192" fill="none" xmlns="http://www.w3.org/2000/svg">
<rect width="192" height="192" transform="translate(0.359863)" fill="white"/>
<path d="M78 120H36V132H78V120Z" fill="black"/>
<path d="M78 102H36V114H78V102Z" fill="black"/>
<path d="M78 84H36V96H78V84Z" fill="black"/>
<path d="M24 66H144V150H36V162H150C153.3 162 156 159.3 156 156V60C156 56.7 153.3 54 150 54H18C14.7 54 12 56.7 12 60V162H24V66Z" fill="black"/>
<path d="M180 150H168V42H24V30H174C177.3 30 180 32.7 180 36V150Z" fill="black"/>
<path d="M96 141H108V126C103.68 125.64 99.66 124.38 96 122.52V141Z" fill="black"/>
<path d="M114 141H126V122.52C122.34 124.38 118.32 125.64 114 126V141Z" fill="black"/>
<path d="M117.66 118.8C118.56 118.5 119.4 118.14 120.24 117.72C120.54 117.54 120.84 117.36 121.2 117.24C121.92 116.82 122.58 116.46 123.24 115.98C123.66 115.68 124.08 115.32 124.5 114.96C129.06 111.12 132 105.42 132 99C132 87.42 122.58 78 111 78C99.42 78 90 87.42 90 99C90 105.42 92.94 111.12 97.5 114.96C97.92 115.32 98.28 115.68 98.76 115.98C99.42 116.46 100.14 116.82 100.8 117.24C101.1 117.42 101.4 117.6 101.76 117.72C102.6 118.14 103.44 118.5 104.34 118.8C104.52 118.8 104.7 118.92 104.88 118.98C105.9 119.28 106.92 119.52 108 119.7C108.96 119.82 109.98 120 111 120C112.02 120 113.04 119.82 114 119.7C115.08 119.52 116.1 119.28 117.12 118.98C117.3 118.98 117.48 118.86 117.66 118.8ZM102 99C102 94.02 106.02 90 111 90C115.98 90 120 94.02 120 99C120 103.98 115.98 108 111 108C106.02 108 102 103.98 102 99Z" fill="black"/>
</svg>
