<svg width="193" height="192" viewBox="0 0 193 192" fill="none" xmlns="http://www.w3.org/2000/svg">
<rect width="192" height="192" transform="translate(0.259766)" fill="white"/>
<path d="M120.66 81L94.0799 94.26C92.9399 94.86 92.6999 96.36 93.5999 97.26L106.86 110.52C107.76 111.42 109.32 111.18 109.86 110.04L123.12 83.46C123.9 81.84 122.22 80.16 120.6 80.94L120.66 81Z" fill="black"/>
<path d="M68.82 132.78L82.08 106.2C82.68 105.06 84.18 104.82 85.08 105.72L98.34 118.98C99.24 119.88 99 121.44 97.86 121.98L71.28 135.24C69.66 136.02 67.98 134.34 68.76 132.72L68.82 132.78Z" fill="black"/>
<path d="M102 36.4801V24.1801H114V12.1801H78V24.1801H90V36.4801C53.1 39.5401 24 70.5001 24 108.18C24 145.86 53.1 176.82 90 179.88V167.88C61.68 165.06 39.12 142.5 36.3 114.18H48V102.18H36.3C39.3 71.8801 64.92 48.1801 96 48.1801C127.08 48.1801 152.7 71.8801 155.7 102.18H144V114.18H155.7C152.88 142.5 130.32 165.06 102 167.88V179.88C138.9 176.82 168 145.86 168 108.18C168 70.5001 138.9 39.5401 102 36.4801Z" fill="black"/>
</svg>
