<svg width="193" height="192" viewBox="0 0 193 192" fill="none" xmlns="http://www.w3.org/2000/svg">
<rect width="192" height="192" transform="translate(0.200195)" fill="white"/>
<path d="M96 168C75.6 168 57.24 159.48 44.1 145.8L48.3 142.98C49.38 142.26 50.22 141.18 50.64 139.86L52.98 132.84L60.24 127.98C62.22 126.66 63.24 124.32 62.82 121.98L59.82 103.98C59.58 102.36 58.62 100.98 57.3 100.02C55.98 99.12 54.3 98.76 52.74 99.06L42.24 101.16L38.28 93.24C37.5 91.68 36.06 90.54 34.38 90.12L24.42 87.66C25.62 77.4 28.98 67.86 34.02 59.4L36.36 65.22C37.08 67.02 38.64 68.34 40.5 68.82L52.5 71.82C52.98 71.94 53.46 72 53.94 72C55.08 72 56.16 71.7 57.18 71.04C58.56 70.14 59.52 68.76 59.88 67.14L62.4 54.48L81.48 40.86C83.4 39.48 84.36 37.14 83.88 34.8L82.02 25.38C86.58 24.48 91.26 24 96 24C103.62 24 110.94 25.2 117.78 27.42L111.3 30.66C110.34 31.14 109.56 31.86 109.02 32.7L103.02 41.7C101.7 43.74 101.7 46.32 103.02 48.36L109.02 57.36C110.16 59.04 112.02 60.06 114 60.06H117V64.74L105.9 68.46L99.36 64.08C98.64 63.6 97.74 63.24 96.9 63.12C87.84 61.8 69.18 64.8 63.3 85.44C62.94 86.76 63 88.2 63.54 89.46L72.54 110.46C73.5 112.68 75.66 114.12 78.06 114.12H86.58L95.28 129.3L93.72 132.42C92.94 133.98 92.88 135.84 93.6 137.46L102.6 158.46C103.56 160.68 105.72 162.12 108.12 162.12H117.12C119.1 162.12 121.02 161.1 122.1 159.42L127.56 151.26L138.72 142.86C140.22 141.72 141.12 139.92 141.12 138.06V119.52L154.38 106.26C156.42 104.22 156.72 101.04 155.1 98.7L145.02 83.58L147.12 79.32L151.2 80.7C153.06 81.36 155.1 81 156.72 79.8L164.64 73.86C166.32 79.02 167.4 84.42 167.88 90H179.82C176.7 46.5 140.4 12 96.12 12C51.84 12 12 49.68 12 96C12 142.32 49.68 180 96 180C142.32 180 176.58 145.5 179.7 102H167.7C164.64 138.9 133.68 168 96 168ZM132 33.72C143.7 40.5 153.36 50.46 159.72 62.52L151.98 68.34L145.98 66.36C143.16 65.4 140.04 66.72 138.72 69.36L132.72 81.36C131.76 83.28 131.88 85.56 133.08 87.36L142.32 101.28L130.8 112.8C129.66 113.94 129.06 115.44 129.06 117.06V135.06L119.46 142.26C118.92 142.68 118.44 143.16 118.08 143.76L113.88 150.06H112.02L105.66 135.24L107.4 131.76C108.3 129.96 108.24 127.86 107.22 126.12L95.22 105.12C94.14 103.26 92.16 102.12 90 102.12H81.96L75.42 86.82C79.74 75.36 90.18 74.76 93.96 74.94L101.7 80.1C103.26 81.12 105.18 81.42 106.92 80.82L124.92 74.82C127.38 73.98 129 71.7 129 69.12V54.12C129 50.82 126.3 48.12 123 48.12H117.24L115.26 45.12L118.14 40.8L132 33.9V33.72ZM70.44 28.74L71.34 33.36L53.52 46.08C52.26 46.98 51.42 48.3 51.12 49.8L49.38 58.62L46.44 57.9L42.48 48C50.1 39.54 59.64 32.88 70.44 28.74V28.74ZM42.3 127.08L39.96 134.1L36.48 136.44C29.34 125.94 24.96 113.4 24.18 99.96L28.86 101.1L33.6 110.64C34.8 113.04 37.5 114.36 40.14 113.82L49.08 112.02L50.4 120.06L44.64 123.9C43.56 124.62 42.72 125.7 42.3 127.02V127.08Z" fill="black"/>
</svg>
