<svg width="193" height="192" viewBox="0 0 193 192" fill="none" xmlns="http://www.w3.org/2000/svg">
<rect width="192" height="192" transform="translate(0.299805)" fill="white"/>
<path d="M144 134.34L128.46 118.8L120 127.26L139.74 147C142.08 149.34 145.86 149.34 148.2 147L191.94 103.26L183.48 94.8L143.94 134.34H144Z" fill="black"/>
<path d="M0 49.26V139.26C0 142.56 2.7 145.26 6 145.26H108V133.26H12V55.26H156V94.26H168V49.26C168 45.96 165.3 43.26 162 43.26H6C2.7 43.26 0 45.9 0 49.26Z" fill="#000102"/>
<path d="M84 67.2C69.06 67.2 57 79.26 57 94.2C57 109.14 69.06 121.2 84 121.2C98.94 121.2 111 109.14 111 94.2C111 79.26 98.94 67.2 84 67.2ZM84 109.2C75.72 109.2 69 102.48 69 94.2C69 85.92 75.72 79.2 84 79.2C92.28 79.2 99 85.92 99 94.2C99 102.48 92.28 109.2 84 109.2Z" fill="#000102"/>
<path d="M123 64.2C123 77.46 133.74 88.2 147 88.2V76.2C140.4 76.2 135 70.8 135 64.2H123Z" fill="#000102"/>
<path d="M45 64.2C45 77.46 34.26 88.2 21 88.2V76.2C27.6 76.2 33 70.8 33 64.2H45Z" fill="#000102"/>
<path d="M45 124.2C45 110.94 34.26 100.2 21 100.2V112.2C27.6 112.2 33 117.6 33 124.2H45Z" fill="#000102"/>
</svg>
