<svg width="75" height="75" viewBox="0 0 75 75" fill="none" xmlns="http://www.w3.org/2000/svg">
<rect width="75" height="75" rx="37.5" fill="#215FF8" fill-opacity="0.1"/>
<g clip-path="url(#clip0_81_63)">
<path d="M34.768 24.4577V50.8949H33.9923L19.606 36.215V50.4718H14V24H14.8109L29.126 38.6439V24.4577H34.7673H34.768Z" fill="#215FF8"/>
<path d="M44.9213 49.7327C43.3225 48.8878 42.0769 47.6384 41.1838 45.9839C40.29 44.3293 39.8438 42.3171 39.8438 39.9465L39.9144 24.4577H45.485L45.4497 39.419C45.426 41.5081 45.8433 43.0626 46.7011 44.0832C47.5589 45.1037 48.7988 45.6146 50.4207 45.6146C53.7113 45.6146 55.357 43.5498 55.357 39.419L55.3923 24.4577H60.9982L60.9629 39.9465C60.9629 42.3171 60.5218 44.3293 59.6409 45.9839C58.7593 47.6384 57.531 48.8878 55.9567 49.7327C54.3816 50.5776 52.5479 51 50.456 51C48.3641 51 46.5188 50.5776 44.9206 49.7327H44.9213Z" fill="#215FF8"/>
</g>
<defs>
<clipPath id="clip0_81_63">
<rect width="47" height="27" fill="white" transform="translate(14 24)"/>
</clipPath>
</defs>
</svg>
