<svg width="75" height="75" viewBox="0 0 75 75" fill="none" xmlns="http://www.w3.org/2000/svg">
<rect width="75" height="75" rx="37.5" fill="#00A642" fill-opacity="0.1"/>
<path d="M63.9231 39.5411C63.6678 38.6363 62.5285 38.4505 62.5425 37.3781C62.5587 36.1522 64.0704 36.0341 63.996 34.69C63.9209 33.333 62.4594 33.4667 62.0622 32.4035C61.5359 30.9955 63.2091 30.7233 62.807 29.2691C62.3984 27.7902 60.8904 28.4341 60.3847 27.33C60.2239 26.9794 60.1818 26.4585 60.3102 26.0939C60.3664 25.9355 60.5294 25.7808 60.6028 25.5881C60.8068 25.0527 60.7587 24.4319 60.4112 23.9685C59.6755 22.9885 58.4525 23.7623 57.6937 22.6846C57.0844 21.8184 57.7169 21.3459 57.6359 20.571C57.5593 19.8418 56.8852 19.1781 56.1474 19.1426C55.5089 19.1115 55.3233 19.4111 54.5758 19.1185C53.1191 18.5476 54.2444 16.8749 53.159 16.0324C51.9452 15.09 51.1782 16.4572 49.9525 15.8155C48.8942 15.2618 49.4447 14.343 48.81 13.6535C48.2999 13.0988 47.4655 12.9549 46.792 13.2975C46.5615 13.4146 46.337 13.6707 46.0693 13.7384C45.583 13.8614 44.883 13.7572 44.5424 13.3689C44.4841 13.3029 44.3265 13.0403 44.2758 12.9469C43.9736 12.3927 43.8564 11.7209 43.0841 11.5572C41.465 11.214 41.3889 12.7197 40.1319 12.6875C39.8463 12.68 39.3088 12.4528 39.108 12.2509C38.9531 12.0947 38.8614 11.8246 38.7059 11.6361C38.2763 11.1141 37.8165 10.9466 37.1375 11.0143C35.9431 11.134 36.0343 12.4899 34.8653 12.6676C33.5176 12.8722 33.3735 11.4299 32.0426 11.5233C30.526 11.6296 30.8709 13.4849 29.5863 13.7958C28.2737 14.1137 27.8242 12.6349 26.463 13.3706C25.253 14.0246 25.9772 15.2699 24.9151 15.8906C23.7374 16.5785 22.7449 15.1646 21.5915 16.2091C20.7782 16.9458 21.4636 17.8968 20.8553 18.7388C19.9438 20.0002 18.7127 18.7361 17.6937 19.7258C16.6321 20.7563 17.8432 21.6987 17.2274 22.742C16.5058 23.9642 15.1635 23.1104 14.443 24.1763C13.5346 25.5199 15.1241 26.1605 14.4969 27.4922C14.0803 28.3777 13.3441 28.1285 12.7315 28.5635C12.2668 28.8932 11.9797 29.4678 12.0445 30.0424C12.1578 31.0492 13.3425 31.3059 12.8762 32.622C12.6106 33.3722 11.9101 33.3771 11.4535 33.8163C11.0363 34.218 10.9569 34.7125 11.0185 35.2689C11.1237 36.222 12.0882 36.2881 12.3251 37.086C12.799 38.6814 11.1825 38.7238 11.0249 39.8424C10.9607 40.3004 11.032 40.7628 11.3099 41.1408C11.7913 41.7954 12.7904 41.7138 12.9679 42.7534C13.1935 44.0754 11.9727 44.1694 12.1195 45.4834C12.2922 47.031 13.8293 46.5509 14.4748 47.4896C15.3454 48.7558 13.7591 49.4131 14.4138 50.7405C15.0523 52.0357 16.285 51.2549 17.1022 52.0534C17.9776 52.9088 17.2338 53.6177 17.3645 54.5477C17.4681 55.2845 18.2733 55.8505 18.9944 55.8236C19.2621 55.8134 19.5897 55.669 19.8612 55.6824C20.6907 55.7227 21.2925 56.5217 21.2952 57.3057C21.2952 57.4389 21.2148 57.5796 21.217 57.7407C21.2294 58.5289 21.999 59.2861 22.7891 59.3054C23.5966 59.3248 23.9679 58.6267 24.9545 59.1035C26.0965 59.655 25.4813 60.99 26.5456 61.6526C27.7939 62.4301 28.4319 60.9953 29.6759 61.2209C31.077 61.4754 30.6285 63.1889 31.9848 63.4182C33.4259 63.662 33.387 62.7051 34.3375 62.3867C35.9566 61.8443 35.9566 63.6212 37.1451 63.9385C37.6664 64.0776 38.1689 63.9799 38.598 63.6529C39.0405 63.3151 39.0352 62.7846 39.6591 62.4608C41.2194 61.651 41.4806 63.6271 43.0247 63.4161C44.5332 63.2104 44.034 61.5973 45.3228 61.208C46.4978 60.853 46.5809 61.6462 47.4218 61.7616C48.0338 61.8454 48.5385 61.7288 48.9465 61.2611C49.5645 60.5528 49.0992 59.8247 49.9677 59.1599C50.9483 58.4092 51.5836 59.2829 52.5831 59.1518C53.0602 59.089 53.5492 58.7062 53.7333 58.2664C54.0522 57.5038 53.5859 56.6554 54.2983 56.0008C55.0847 55.2786 55.7453 55.8209 56.5646 55.6459C57.1184 55.5277 57.6683 54.9064 57.7266 54.3372C57.8038 53.5822 57.3181 53.1032 57.6705 52.3235C58.167 51.2265 59.0851 51.6647 59.8774 51.3296C60.6557 51.0004 60.9314 50.1649 60.7366 49.3841C60.6411 49.0012 60.3119 48.7553 60.2816 48.309C60.2509 47.8623 60.5029 47.3473 60.8203 47.0482C61.3978 46.5048 62.1566 46.7899 62.6693 45.9882C63.6306 44.4846 61.7934 43.9718 62.0427 42.5375C62.2171 41.536 63.2555 41.6235 63.731 40.8825C64.0132 40.4422 64.0661 40.0496 63.9236 39.5443L63.9231 39.5411ZM53.3549 21.9264C53.9616 22.1229 55.6034 23.5099 56.1577 23.9954C58.3975 25.9559 56.7681 27.4519 55.3923 29.1757C54.6481 30.1079 53.8525 31.0084 53.1018 31.9358C48.6464 37.441 44.1641 42.9316 39.6925 48.4266C38.9105 49.2563 37.6853 49.3374 36.6939 48.8337C33.3838 45.9066 30.0575 42.9934 26.7588 40.0513C25.4769 38.908 23.6959 37.9114 24.7758 35.8338C24.9685 35.4632 27.0928 33.1021 27.4501 32.839C28.4324 32.1162 29.5567 32.3616 30.4661 33.0275C32.2601 34.342 33.8695 36.2827 35.6959 37.6117C36.7387 38.2609 38.1241 38.1025 38.9245 37.1499L50.6207 22.7603C51.29 21.9145 52.3154 21.5897 53.3555 21.9264H53.3549ZM30.1617 58.1241C18.0736 53.8921 12.0893 40.0437 17.4907 28.367C22.6828 17.1423 36.3538 12.2896 47.5152 18.0214C47.852 18.1943 50.0367 19.4219 50.0691 19.6179L47.7688 22.4639C42.4078 18.8398 35.3187 18.3141 29.4778 21.1547C16.4685 27.4809 15.7415 45.7567 28.1922 53.1242C41.2113 60.8278 57.4864 50.0762 55.6115 35.1958C55.5203 34.4725 55.2601 33.7637 55.2628 33.0361L57.82 29.8174C57.8669 29.7766 57.9333 29.7653 57.9814 29.7245C58.2431 29.7502 58.9933 32.9786 59.0754 33.4173C62.1669 49.9345 46.1497 63.7216 30.1617 58.1246V58.1241Z" fill="#00A642"/>
</svg>
