<svg width="21" height="15" viewBox="0 0 21 15" fill="none" xmlns="http://www.w3.org/2000/svg">
<path d="M18.9181 4.78053C18.3352 3.26239 17.6033 2.25932 16.5866 1.60869C16.8035 1.56802 16.9797 1.40537 17.0204 1.17493C17.0746 0.876725 16.8848 0.578517 16.5731 0.524297L13.9299 0.00921132C13.6317 -0.0450083 13.3335 0.14476 13.2792 0.456523C13.2657 0.497188 13.2657 0.551407 13.2657 0.592072C12.3575 0.483633 11.3273 0.456523 10.1616 0.456523C8.98235 0.456523 7.96573 0.497188 7.05755 0.592072C7.05755 0.551407 7.05755 0.497188 7.044 0.456523C6.98978 0.14476 6.69157 -0.0450083 6.39336 0.00921132L3.75016 0.524297C3.43839 0.578517 3.24863 0.876725 3.30285 1.17493C3.34351 1.40537 3.51972 1.56802 3.7366 1.60869C2.71999 2.25932 1.97447 3.26239 1.40516 4.78053C-0.885617 10.8125 -0.492525 17.6306 3.45195 13.9708C5.1192 12.4662 5.10565 10.8667 10.1616 10.8667H10.1752C15.2176 10.8667 15.2176 12.4662 16.8848 13.9572C20.8158 17.6306 21.2224 10.8125 18.9181 4.78053ZM13.9299 3.34372C13.9977 3.24883 14.0654 3.14039 14.1603 3.03195C14.2552 2.92351 14.3365 2.82863 14.4314 2.7473C14.5263 2.66597 14.5941 2.62531 14.6212 2.62531C14.7161 2.62531 14.8516 2.69308 15.0549 2.85574C15.1905 2.96418 15.3396 3.08617 15.4887 3.23528C15.5971 3.33016 15.7733 3.33016 15.8818 3.23528C16.0309 3.09973 16.18 2.96418 16.3155 2.85574C16.5189 2.69308 16.6544 2.61175 16.7493 2.62531C16.79 2.62531 16.8577 2.66597 16.9391 2.7473C17.034 2.82863 17.1153 2.90996 17.2102 3.00484C17.305 3.09973 17.3728 3.20817 17.4406 3.30305C17.5084 3.39793 17.5355 3.46571 17.5219 3.50637C17.5084 3.57415 17.3999 3.73681 17.2102 3.98079C17.034 4.19767 16.8306 4.41455 16.5866 4.65854C16.5324 4.71276 16.5053 4.78053 16.5053 4.84831C16.4918 5.13296 16.4646 5.37695 16.424 5.60738C16.4104 5.72938 16.3833 5.82426 16.3698 5.89204C16.3427 6.01403 16.2478 6.09536 16.1258 6.10891C16.0173 6.12247 15.8953 6.12247 15.7733 6.13602C15.6378 6.13602 15.5294 6.13602 15.4074 6.13602C15.1905 6.13602 15.0956 5.94625 15.0414 5.68871C14.9872 5.45828 14.9601 5.20074 14.9194 4.92964C14.9058 4.86186 14.8787 4.79409 14.8381 4.75342C14.5805 4.50944 14.3636 4.279 14.1739 4.04857C13.9705 3.80458 13.8621 3.64192 13.8486 3.56059C13.835 3.51993 13.8621 3.45215 13.9299 3.34372ZM7.69463 9.33498C7.6133 9.5383 7.49131 9.6603 7.32865 9.70096C6.80001 9.89073 6.2307 9.98561 5.59362 9.98561C4.95654 9.98561 4.40079 9.86362 3.89926 9.63319C3.22152 9.32142 2.70643 8.87411 2.34045 8.29125C1.97447 7.69484 1.83892 7.01709 1.90669 6.27157C2.02869 5.06519 2.50311 4.1299 3.32996 3.45215C4.1568 2.77441 5.18698 2.50331 6.40692 2.63886C6.61024 2.66597 6.80001 2.77441 6.94911 2.96418C7.09822 3.15395 7.23376 3.49282 7.32865 3.96724C7.42353 4.44166 7.36931 4.79409 7.15243 5.01097C7.07111 5.0923 6.97622 5.13296 6.86778 5.14652C6.73223 5.16007 6.58313 5.16007 6.44758 5.17363C6.31203 5.18718 6.17648 5.20074 6.04093 5.22785C5.70206 5.29562 5.40385 5.45828 5.13276 5.70227C4.86166 5.95981 4.75322 6.27157 4.83455 6.63755C4.87521 6.80021 4.95654 6.93576 5.07854 7.03065C5.28186 7.1933 5.5394 7.26108 5.86472 7.26108C6.20359 7.24752 6.47469 7.22041 6.71868 7.16619C6.85423 7.12553 6.98978 7.12553 7.11177 7.17975C7.23376 7.23397 7.3422 7.34241 7.43709 7.47796C7.58619 7.70839 7.69463 8.02015 7.74885 8.39969C7.81662 8.76567 7.80307 9.07744 7.69463 9.33498ZM7.70819 4.61788C7.66752 4.25189 7.64041 3.89947 7.62686 3.56059C7.6133 3.22172 7.59975 2.99129 7.6133 2.88285C7.62686 2.78796 7.69463 2.72019 7.84373 2.66597C7.99284 2.61175 8.1555 2.58464 8.33171 2.58464C8.50792 2.58464 8.67058 2.5982 8.81969 2.63886C8.96879 2.67953 9.05012 2.73374 9.05012 2.81507C9.06368 2.95062 9.07723 3.09973 9.07723 3.27594C9.07723 3.39793 9.09079 3.51993 9.09079 3.64192C9.09079 3.75036 9.18567 3.84525 9.30766 3.84525C9.4161 3.84525 9.51099 3.75036 9.51099 3.64192C9.51099 3.51993 9.51099 3.39793 9.51099 3.2895C9.51099 3.11328 9.51099 2.96418 9.52454 2.82863C9.52454 2.7473 9.60587 2.69308 9.75498 2.65242C9.90408 2.61175 10.0667 2.5982 10.243 2.5982C10.4192 2.5982 10.5818 2.62531 10.7309 2.67953C10.88 2.73374 10.9614 2.80152 10.9749 2.8964C10.9885 3.00484 11.002 3.23528 10.9885 3.57415C10.9885 3.91302 10.9749 4.26545 10.9614 4.63143C10.9343 4.99741 10.9071 5.32273 10.88 5.62094C10.8529 5.91915 10.7987 6.06825 10.758 6.09536C10.6496 6.14958 10.4734 6.17669 10.2023 6.16313C9.93119 6.14958 9.79564 6.10891 9.75498 6.05469C9.72787 6.02758 9.70076 5.9327 9.67365 5.77004C9.66009 5.6616 9.64654 5.55316 9.63298 5.41761C9.61943 5.29562 9.51099 5.21429 9.40255 5.2414C9.38899 5.2414 9.36188 5.2414 9.34833 5.25496C9.32122 5.25496 9.28055 5.26851 9.25344 5.26851C9.15856 5.28206 9.09079 5.36339 9.07723 5.45828C9.06368 5.59383 9.06368 5.70227 9.05012 5.81071C9.03657 5.94625 9.02301 6.04114 8.9959 6.06825C8.94168 6.09536 8.79258 6.13602 8.53503 6.14958C8.27749 6.16313 8.08772 6.14958 7.97928 6.09536C7.92506 6.06825 7.8844 5.91915 7.84373 5.62094C7.78952 5.32273 7.74885 4.98386 7.70819 4.61788ZM11.2596 7.38307C11.2596 7.72195 11.246 8.07437 11.2189 8.44036C11.2053 8.80634 11.1782 9.13166 11.1376 9.42986C11.0969 9.72807 11.0562 9.89073 11.0156 9.90428C10.9071 9.9585 10.7174 9.97206 10.4598 9.9585C10.2023 9.94495 10.0532 9.91784 10.0261 9.85006C9.99896 9.82296 9.97185 9.72807 9.94474 9.56541C9.93119 9.47053 9.91763 9.34853 9.90408 9.21298C9.89052 9.09099 9.78209 9.00966 9.67365 9.03677C9.66009 9.03677 9.64654 9.05033 9.61943 9.05033C9.59232 9.05033 9.55165 9.06388 9.52454 9.06388C9.42966 9.07744 9.36188 9.15876 9.34833 9.25365C9.33477 9.3892 9.32122 9.49764 9.32122 9.60608C9.30766 9.74162 9.28055 9.83651 9.267 9.86362C9.23989 9.91784 9.09079 9.9585 8.83324 9.97206C8.5757 9.98561 8.38593 9.97206 8.27749 9.91784C8.22327 9.89073 8.18261 9.74163 8.12839 9.44342C8.08772 9.14521 8.04706 8.81989 8.00639 8.45391C7.97928 8.08793 7.95217 7.7355 7.92506 7.39663C7.91151 7.05776 7.89795 6.82732 7.91151 6.71888C7.92506 6.624 7.99284 6.55622 8.14194 6.50201C8.29105 6.44779 8.4537 6.42068 8.62992 6.42068C8.80613 6.40712 8.96879 6.43423 9.1179 6.46134C9.267 6.50201 9.34833 6.55622 9.34833 6.63755C9.36188 6.7731 9.37544 6.92221 9.37544 7.09842C9.38899 7.22041 9.38899 7.34241 9.38899 7.4644C9.38899 7.5864 9.48388 7.66773 9.59232 7.66773C9.70076 7.66773 9.79564 7.57284 9.79564 7.4644C9.79564 7.34241 9.79564 7.22041 9.79564 7.11198C9.79564 6.93576 9.80919 6.78666 9.80919 6.65111C9.80919 6.56978 9.89052 6.51556 10.0396 6.4749C10.1887 6.43423 10.3514 6.42068 10.514 6.42068C10.6903 6.42068 10.8529 6.44779 11.002 6.50201C11.1511 6.55622 11.2325 6.624 11.246 6.71888C11.246 6.82732 11.2596 7.0442 11.2596 7.38307ZM11.3545 5.70227C11.3273 5.47183 11.3002 5.20074 11.2867 4.88897C11.2731 4.57721 11.2596 4.26545 11.2596 3.94013C11.2596 3.61481 11.2596 3.35727 11.2731 3.15395C11.2731 3.04551 11.2867 2.93707 11.3002 2.84218C11.3138 2.7473 11.3545 2.69308 11.3816 2.66597C11.4222 2.63886 11.5578 2.62531 11.7882 2.61175C12.0186 2.5982 12.2762 2.58464 12.5473 2.58464C12.8184 2.58464 13.0624 2.58464 13.2928 2.5982C13.5232 2.61175 13.6588 2.63886 13.6859 2.66597C13.7266 2.69308 13.7537 2.82863 13.7537 3.07262C13.7672 3.30305 13.7401 3.47926 13.713 3.60126C13.6994 3.65548 13.591 3.69614 13.3877 3.69614C13.2115 3.7097 12.9946 3.72325 12.7506 3.72325C12.7099 3.72325 12.6828 3.75036 12.6828 3.79103C12.6828 3.79103 12.6828 3.79103 12.6828 3.80458C12.6828 3.83169 12.7099 3.8588 12.7506 3.8588C12.8997 3.8588 13.0217 3.87236 13.1166 3.89947C13.1437 3.91302 13.1708 3.95369 13.1979 4.03501C13.225 4.11634 13.2386 4.21123 13.2521 4.30611C13.2657 4.401 13.2657 4.49588 13.2521 4.57721C13.2386 4.65854 13.2115 4.71276 13.1708 4.71276C13.1437 4.72631 13.0759 4.72631 13.0081 4.73987C12.9404 4.75342 12.8726 4.75342 12.8048 4.75342C12.7642 4.75342 12.7371 4.78053 12.7371 4.8212V4.83475C12.7371 4.86186 12.7642 4.90253 12.8048 4.88897C13.0488 4.88897 13.2657 4.87542 13.469 4.86186C13.6859 4.84831 13.8079 4.86186 13.8486 4.90253C13.8892 4.92964 13.9163 5.07874 13.9434 5.34984C13.957 5.60738 13.957 5.79715 13.9163 5.91915C13.9028 5.97336 13.7808 6.01403 13.5503 6.04114C13.3199 6.06825 13.0624 6.09536 12.7913 6.10891C12.5066 6.12247 12.2355 6.12247 11.978 6.10891C11.7204 6.09536 11.5442 6.0818 11.4764 6.04114C11.4222 6.05469 11.3816 5.9327 11.3545 5.70227ZM14.1468 9.79585C14.1332 9.85006 14.0112 9.89073 13.7808 9.91784C13.5503 9.94495 13.2928 9.97206 13.0217 9.98561C12.7371 9.99917 12.466 9.99917 12.2084 9.99917C11.9509 9.98561 11.7747 9.97206 11.7069 9.93139C11.6527 9.91784 11.6256 9.78229 11.5849 9.55186C11.5578 9.32142 11.5307 9.05033 11.5171 8.73856C11.5036 8.4268 11.49 8.11504 11.49 7.78972C11.49 7.4644 11.49 7.20686 11.5036 7.00354C11.5036 6.8951 11.5171 6.78666 11.5307 6.70533C11.5442 6.61044 11.5713 6.55623 11.612 6.52912C11.6527 6.50201 11.7882 6.48845 12.0186 6.4749C12.2491 6.46134 12.5066 6.44779 12.7777 6.44779C13.0488 6.44779 13.2928 6.44779 13.5232 6.46134C13.7537 6.4749 13.8892 6.50201 13.9163 6.52912C13.957 6.55623 13.9841 6.69177 13.9841 6.92221C13.9841 7.15264 13.9705 7.32885 13.9434 7.45085C13.9299 7.50507 13.8214 7.54573 13.6181 7.55929C13.4419 7.57284 13.225 7.5864 12.981 7.5864C12.9539 7.5864 12.9133 7.61351 12.9268 7.65417V7.66773C12.9268 7.69484 12.9539 7.72195 12.981 7.72195C13.1301 7.72195 13.2521 7.7355 13.347 7.76261C13.3741 7.77617 13.4012 7.81683 13.4284 7.89816C13.4555 7.97949 13.469 8.07437 13.4826 8.16926C13.4961 8.26414 13.4961 8.35903 13.4826 8.44036C13.469 8.52168 13.4419 8.5759 13.4012 8.5759C13.3741 8.58946 13.3199 8.58946 13.2386 8.60301C13.1708 8.61657 13.103 8.61657 13.0353 8.61657C13.0081 8.61657 12.981 8.64368 12.981 8.68434V8.71145C12.981 8.73856 13.0082 8.77923 13.0488 8.77923C13.2928 8.77923 13.5232 8.76567 13.713 8.75212C13.9299 8.73856 14.0654 8.75212 14.0925 8.79278C14.1332 8.81989 14.1739 8.969 14.1874 9.22654C14.201 9.48408 14.1739 9.68741 14.1468 9.79585ZM17.427 7.78972C17.2508 8.0066 17.0475 8.23703 16.8035 8.46746C16.7493 8.52168 16.7222 8.58946 16.7086 8.65723C16.6951 8.94189 16.668 9.18587 16.6273 9.41631C16.6138 9.5383 16.5866 9.63319 16.5731 9.70096C16.546 9.82296 16.4511 9.90428 16.3291 9.91784C16.2207 9.93139 16.0987 9.93139 15.9767 9.94495C15.8547 9.94495 15.7327 9.94495 15.6242 9.94495C15.4074 9.94495 15.3125 9.74162 15.2583 9.48408C15.204 9.25365 15.1769 8.99611 15.1363 8.72501C15.1227 8.65723 15.0956 8.58946 15.0414 8.54879C14.7838 8.30481 14.567 8.07437 14.3772 7.85749C14.1739 7.61351 14.0654 7.45085 14.0519 7.36952C14.0383 7.32885 14.0654 7.24752 14.1332 7.15264C14.201 7.05776 14.2688 6.94932 14.3636 6.84088C14.4585 6.73244 14.5399 6.65111 14.6347 6.56978C14.7296 6.48845 14.7974 6.44779 14.8381 6.44779C14.9329 6.43423 15.0685 6.51556 15.2718 6.67822C15.4074 6.78666 15.5565 6.92221 15.7056 7.05776C15.814 7.15264 15.9902 7.15264 16.0987 7.05776C16.2478 6.92221 16.3969 6.78666 16.5324 6.67822C16.7222 6.51556 16.8713 6.44779 16.9662 6.44779C17.0068 6.44779 17.0746 6.48845 17.1559 6.56978C17.2508 6.65111 17.3322 6.73244 17.427 6.84088C17.5219 6.93576 17.5897 7.0442 17.6575 7.13909C17.7253 7.23397 17.7524 7.30174 17.7388 7.34241C17.7253 7.39663 17.6168 7.55929 17.427 7.78972Z" fill="#013954"/>
</svg>
