<svg width="15" height="15" viewBox="0 0 15 15" fill="none" xmlns="http://www.w3.org/2000/svg">
<g clip-path="url(#clip0_124_92)">
<path d="M4.22966 3.63449C5.89889 3.44458 6.73849 5.52361 5.4491 6.52315C4.33961 7.39274 2.73036 6.51315 2.84031 5.10381C2.89029 4.38414 3.5 3.71446 4.22966 3.63449Z" fill="#013954"/>
<path d="M11.9465 8.96207C12.1664 9.18197 12.6462 9.24194 12.946 9.35189C13.5857 9.59178 13.9356 9.90164 14.0855 10.5913C14.1854 11.0711 14.0955 11.9107 13.6657 12.2206C13.4858 12.3405 13.2759 12.2605 13.2359 12.0506C13.1659 11.7108 13.1759 11.4909 12.906 11.221C12.3663 10.6713 11.2668 10.7712 11.3368 11.7208C11.4067 12.6304 12.6362 13.8198 13.3458 14.3196C13.5158 14.4395 13.9056 14.6294 14.0255 14.7594C14.1355 14.8793 14.0855 14.9893 13.9256 14.9993C13.7956 15.0093 13.4658 14.9093 13.3258 14.8593C10.5072 13.9997 8.56806 11.361 7.49856 8.56226C6.42906 11.361 4.48996 13.9997 1.67127 14.8593C1.53134 14.8993 1.20149 15.0093 1.07155 14.9993C0.911628 14.9893 0.861651 14.8793 0.9716 14.7594C1.08155 14.6394 1.48136 14.4395 1.65128 14.3196C2.36095 13.8198 3.59038 12.6304 3.66035 11.7208C3.73032 10.7712 2.64082 10.6713 2.09108 11.221C1.8212 11.4909 1.8312 11.7108 1.76123 12.0506C1.72125 12.2605 1.51135 12.3505 1.33143 12.2206C0.891637 11.9207 0.801679 11.0711 0.901632 10.5913C1.04157 9.90164 1.4014 9.59178 2.0411 9.35189C2.34096 9.24194 2.82074 9.18197 3.04064 8.96207C3.25054 8.75217 3.21056 8.4823 2.93069 8.37235C2.55086 8.21242 2.0411 8.12246 1.63129 7.97253C1.26146 7.8326 0.361884 7.47277 0.112 7.21289C-0.0679162 7.03297 -0.0379302 6.7631 0.251935 6.7531C2.34096 7.3928 5.23961 8.06249 6.82887 6.30331C6.78889 6.13339 6.75891 5.96347 6.72892 5.79355C6.60898 5.10387 6.45905 4.1743 6.45905 3.47463C6.45905 3.29471 6.56899 3.04483 6.78889 3.14478C6.86885 3.17477 6.94882 3.43465 6.9788 3.52461C7.15872 4.10434 7.26867 4.66407 7.49856 5.21382C7.72845 4.65408 7.8384 4.10434 8.01832 3.52461C8.04831 3.43465 8.12827 3.18476 8.20823 3.14478C8.43812 3.04483 8.53808 3.29471 8.53808 3.47463C8.53808 4.16431 8.38815 5.10387 8.2682 5.79355C8.23822 5.96347 8.20823 6.13339 8.16825 6.30331C9.74752 8.06249 12.6462 7.3928 14.7452 6.7531C15.0351 6.7531 15.065 7.03297 14.8851 7.21289C14.6252 7.48276 13.7357 7.8426 13.3658 7.97253C12.956 8.12246 12.4463 8.21242 12.0664 8.37235C11.7766 8.4823 11.7366 8.75217 11.9465 8.96207Z" fill="#013954"/>
<path d="M10.7468 3.63449C9.07757 3.44458 8.23796 5.52361 9.52736 6.52315C10.6468 7.39274 12.2461 6.51315 12.1461 5.10381C12.0862 4.38414 11.4765 3.71446 10.7468 3.63449Z" fill="#013954"/>
<path d="M7.63842 0.106235L7.91829 0.985826H8.83786C8.98779 0.985826 9.04776 1.17574 8.92782 1.2657L8.18816 1.79545L8.46803 2.67504C8.51801 2.81497 8.34809 2.93492 8.22814 2.84496L7.48849 2.30521L6.74883 2.84496C6.62889 2.93492 6.46896 2.81497 6.50894 2.67504L6.78881 1.79545L6.04916 1.2557C5.92921 1.16574 5.98919 0.975831 6.13912 0.975831H7.05869L7.33856 0.0962399C7.38854 -0.0336996 7.58844 -0.0336996 7.63842 0.106235Z" fill="#013954"/>
<path d="M10.4276 1.59562L10.5776 2.0654H11.0673C11.1473 2.0654 11.1773 2.16535 11.1173 2.21533L10.7175 2.50519L10.8674 2.97497C10.8874 3.05494 10.8074 3.11491 10.7375 3.06493L10.3377 2.77507L9.93785 3.06493C9.87788 3.11491 9.78792 3.04494 9.80791 2.97497L9.95784 2.50519L9.55803 2.21533C9.49806 2.16535 9.52804 2.0654 9.608 2.0654H10.0978L10.2477 1.59562C10.2977 1.51565 10.3976 1.51565 10.4276 1.59562Z" fill="#013954"/>
<path d="M4.70985 1.59562L4.85978 2.0654H5.34955C5.42951 2.0654 5.4595 2.16535 5.39953 2.21533L4.99971 2.50519L5.14964 2.97497C5.16964 3.05494 5.08967 3.11491 5.01971 3.06493L4.61989 2.77507L4.22008 3.06493C4.16011 3.11491 4.07015 3.04494 4.09014 2.97497L4.24007 2.50519L3.84025 2.21533C3.78028 2.16535 3.81027 2.0654 3.89023 2.0654H4.38L4.52993 1.59562C4.57991 1.51565 4.67986 1.51565 4.70985 1.59562Z" fill="#013954"/>
</g>
<defs>
<clipPath id="clip0_124_92">
<rect width="14.9971" height="15" fill="white"/>
</clipPath>
</defs>
</svg>
