<svg width="20" height="15" viewBox="0 0 20 15" fill="none" xmlns="http://www.w3.org/2000/svg">
<g clip-path="url(#clip0_124_134)">
<path d="M19.6762 9.20278C19.2866 6.85482 18.3092 2.28466 16.5844 0.6712C15.089 -0.727829 13.8508 0.438653 12.3474 0.855863C11.1182 1.19688 9.45704 1.21728 8.20704 0.97807C6.68664 0.68723 5.08044 -0.736989 3.60364 0.492574C1.65384 2.11624 0.63964 7.18584 0.25464 9.6916C0.16384 10.2826 0.0426397 10.9457 0.00803973 11.5289C-0.0171603 11.9536 0.0266397 12.4026 0.00803973 12.83C0.0688397 13.006 0.0674397 13.2139 0.10424 13.4007C0.64264 16.1361 2.87804 14.7901 4.16744 13.5631C4.94464 12.8234 6.04464 11.3169 7.01924 11.0028C8.30984 10.5866 11.4056 10.6278 12.7386 10.9378C13.9534 11.2205 14.988 12.7632 15.8996 13.6235C17.0546 14.7135 19.1058 16.0316 19.8242 13.7244L20 12.7895V11.5697C19.9574 10.8121 19.8022 9.96246 19.6762 9.20278ZM6.19644 8.47869C2.41604 8.79597 2.05524 2.83033 5.81824 2.63629C9.44564 2.44913 9.76844 8.1789 6.19644 8.47869ZM11.9002 6.36246C11.0782 6.22484 11.0582 4.79688 11.8676 4.62554C13.2346 4.33636 13.2832 6.59396 11.9002 6.36246ZM13.946 8.33858C12.9306 8.27342 12.8638 6.78924 13.8202 6.61874C15.1212 6.38661 15.182 8.4179 13.946 8.33858ZM13.3412 4.08924C12.6214 3.21464 13.8644 2.12352 14.5976 2.88258C15.4504 3.7653 14.0674 4.97176 13.3412 4.08924ZM16.4718 6.14698C16.28 6.34559 16.0234 6.39327 15.7612 6.36662C14.7952 6.26898 14.8032 4.50895 15.9992 4.61471C16.7104 4.67758 16.9572 5.64441 16.4716 6.14677L16.4718 6.14698Z" fill="#013954"/>
<path d="M5.81869 3.4901C2.93829 3.67851 3.68169 8.39315 6.51109 7.5452C8.74488 6.87566 8.16889 3.33625 5.81869 3.4901Z" fill="#013954"/>
</g>
<defs>
<clipPath id="clip0_124_134">
<rect width="20" height="15" fill="white"/>
</clipPath>
</defs>
</svg>
