<svg width="75" height="75" viewBox="0 0 75 75" fill="none" xmlns="http://www.w3.org/2000/svg">
<rect width="75" height="75" rx="37.5" fill="#981AF7" fill-opacity="0.1"/>
<g clip-path="url(#clip0_81_19)">
<path d="M38.6242 54.8924H31.0403L32.2247 50.4681C32.3323 50.3235 33.7442 50.4273 34.0765 50.3785C35.3465 50.1922 35.0927 48.5223 33.9543 48.437C28.4798 48.3772 22.9831 48.5735 17.5217 48.3346C16.8661 48.2488 15.9439 47.3264 15.9439 46.6632V43.7993H37.1865C37.2302 43.7993 37.5587 43.6324 37.6198 43.5841C38.0569 43.2376 38.0922 42.3721 37.6509 42.026C37.2631 41.7222 37.0089 41.8526 36.615 41.8454C29.8113 41.7255 22.9967 41.9246 16.1921 41.8454C16.1183 41.8611 15.9439 41.7928 15.9439 41.7331V17.5915C15.9439 17.5181 16.139 17.0057 16.1916 16.899C16.4722 16.3326 17.0799 15.9927 17.7027 15.9576H56.887C58.1222 16.0439 58.7083 16.6445 58.8634 17.8788L58.8591 40.5031C58.9931 41.6246 60.6682 41.6137 60.8021 40.3566C60.7443 32.5587 60.9177 24.7443 60.7128 16.9559C60.2781 15.3978 58.947 14.1294 57.3138 14.0033L17.3431 14C15.5595 14.2403 14.063 15.7477 14 17.5882L14.0038 46.1556C13.9977 48.4626 15.5731 50.2031 17.8488 50.3974H30.2493L29.0245 54.8891C28.3091 54.9948 26.9654 54.681 26.3713 55.0773C25.68 55.538 25.9559 56.8382 26.8315 56.8534L38.6205 56.8463C39.278 56.7368 39.5055 55.8092 39.1638 55.2906C39.0994 55.193 38.7032 54.8924 38.6242 54.8924Z" fill="#981AF7"/>
<path d="M60.5154 55.5077C60.4063 54.253 60.5079 52.9182 60.4416 51.6673C60.3208 49.3878 59.6158 47.2723 58.8427 45.1597C58.0756 43.0636 56.989 39.2678 53.9857 40.1523C53.7229 40.2296 53.0936 40.6614 52.9902 40.6708C52.9319 40.6761 52.2063 40.2258 51.9341 40.1646C50.9965 39.9523 50.1791 40.1874 49.4685 40.8164C48.3377 40.0414 47.2069 39.7854 45.9219 40.3926L43.7989 34.304C42.2357 30.5802 37.4299 31.7406 37.7989 35.8602C37.8553 36.492 38.1279 37.2078 38.2994 37.8202L41.4635 46.4822C40.977 46.2968 40.5813 45.9944 40.0436 45.9214C37.2889 45.546 35.6209 48.0004 36.7785 50.5197C37.4116 51.8977 38.8174 52.858 39.7757 53.9492C40.6931 54.9934 41.2976 56.1898 42.3607 57.1421C43.4464 58.1147 44.8221 58.6722 45.8833 59.5344C46.2847 59.8605 46.7909 60.7336 47.1035 60.9142C47.4024 61.0867 47.9857 60.9872 48.223 60.7303C48.9586 59.9354 47.6148 58.5854 47.033 58.0849C45.9374 57.1421 44.4917 56.5358 43.4389 55.547C42.5421 54.7047 41.9523 53.5676 41.1415 52.6442C40.2368 51.6142 38.236 50.2424 38.2961 48.7659C38.3361 47.7866 39.5233 47.6468 40.2429 47.9682C40.711 48.1772 41.7464 49.3224 42.136 49.7537C42.6286 50.2988 43.0366 50.9198 43.5545 51.4431C44.6679 51.7721 44.8907 51.0938 44.6458 50.1254C44.448 49.3437 44.0997 48.4559 43.8393 47.6766C42.7005 44.2657 41.3084 40.9349 40.1691 37.531C39.8584 36.6025 39.1243 34.8268 40.1907 34.1428C40.8167 33.7414 41.2759 34.0225 41.7163 34.5202C43.4027 38.0667 44.4169 41.9549 45.8866 45.6114C46.1334 46.2248 46.4403 47.3439 47.3371 46.8595C47.7539 46.6343 47.7746 46.2589 47.683 45.829C47.4926 44.9355 46.7853 43.8747 46.5827 42.9456C46.5301 42.0113 47.6661 41.6103 48.2211 42.3142C48.8754 43.1437 49.1795 45.127 49.789 46.0982C50.2609 46.8505 51.34 46.8486 51.3899 45.8683C51.4355 44.9743 50.5382 43.7813 50.4644 42.9456C50.3911 42.1161 51.404 41.7459 51.96 42.3133C52.5616 43.1153 53.0438 45.7109 53.7615 46.2238C54.2761 46.5921 54.936 46.266 54.9412 45.6498C54.9473 44.8928 53.5293 42.8845 54.0651 42.2256C54.31 41.9246 54.8481 41.8492 55.1983 42.0199C55.8629 42.3431 56.6275 44.4724 56.9204 45.2132C57.7668 47.3562 58.5141 49.6314 58.6443 51.9574C58.7223 53.3586 58.4667 54.6711 58.7519 56.0537C58.8652 56.6026 59.2003 58.0465 59.7037 58.2839C60.129 58.4849 60.7711 58.3911 60.9624 57.9194C61.1513 57.4535 60.5694 56.1329 60.5149 55.5077H60.5154Z" fill="#981AF7"/>
<path d="M49.5327 25.3667C49.8401 24.6078 49.1384 24.1323 48.5828 23.8242C45.2294 21.9638 41.452 20.5583 38.0854 18.6784C37.34 18.3978 37.1689 18.5002 36.478 18.7979C32.8745 20.3498 29.3537 22.5496 25.7427 24.1385C25.1909 24.4945 25.0311 25.0841 25.4335 25.6387C26.036 26.4687 28.1219 27.019 29.0055 27.6191C29.1206 27.6973 29.2452 27.7604 29.3001 27.9016L29.3161 33.9755C29.2268 36.6698 34.6671 38.1255 36.6068 37.8505C37.3475 37.7458 37.5439 36.6153 36.9306 36.156C36.5734 35.8882 35.3157 35.8905 34.7756 35.7919C34.1454 35.6763 33.4258 35.4639 32.8402 35.2065C32.4764 35.0468 31.2563 34.4045 31.2563 33.9765V28.7928C31.3611 28.7724 31.433 28.8165 31.5232 28.8496C33.2684 29.4877 35.1338 30.9116 36.8869 31.5605C37.4537 31.77 37.5952 31.6984 38.1347 31.4884C39.7299 30.8675 41.4031 29.5763 42.9945 28.9947C43.0848 28.9615 43.1567 28.9174 43.2615 28.9378V32.454C43.2615 32.5602 43.4556 32.8085 43.5468 32.891C44.1117 33.4048 45.0635 33.0863 45.134 32.3123C45.259 30.9372 45.0348 29.3696 45.1293 27.9737L46.4246 27.2698V32.7436C46.4246 32.8612 46.6431 33.2721 46.7465 33.3612C47.3857 33.912 48.3892 33.3489 48.3685 32.5289L48.3671 26.3649C48.4277 26.0487 49.3311 25.8644 49.5332 25.3662L49.5327 25.3667ZM46.4754 25.1851L37.4015 29.6332L28.308 25.1311C28.2906 25.0126 28.3987 24.9865 28.4744 24.9363C28.7897 24.7272 29.3142 24.5111 29.6729 24.3324C32.2583 23.0426 34.8673 21.7628 37.4697 20.528L46.5679 25.024L46.4758 25.1851H46.4754Z" fill="#981AF7"/>
</g>
<defs>
<clipPath id="clip0_81_19">
<rect width="47" height="47" fill="white" transform="translate(14 14)"/>
</clipPath>
</defs>
</svg>
