<svg width="23" height="15" viewBox="0 0 23 15" fill="none" xmlns="http://www.w3.org/2000/svg">
<path d="M7.41939 8.70025C7.41939 8.56264 7.41939 8.44031 7.41939 8.3027C7.41939 8.21096 7.48055 8.1345 7.55701 8.10392C7.60288 8.08863 7.67933 8.1345 7.75578 8.16509C7.78636 8.18038 7.81695 8.19567 7.78637 8.24154C7.60288 8.57793 7.74049 8.9449 7.70991 9.29658C7.69462 9.51065 7.64875 9.72472 7.81695 9.92349C7.8934 10.0152 7.83224 10.1376 7.75578 10.2293C7.66404 10.321 7.66404 10.4434 7.74049 10.5198C7.90869 10.688 7.8934 10.8868 7.8934 11.0856C7.8934 11.1314 7.8934 11.162 7.8934 11.2079C7.8934 11.7431 7.8934 11.7431 7.34294 11.6972C7.2512 11.6819 7.22062 11.6666 7.22062 11.5749C7.22062 11.3149 7.22062 11.0703 7.22062 10.8103C7.22062 10.7186 7.26649 10.6574 7.31236 10.6116C7.43468 10.474 7.46526 10.3516 7.32765 10.1987C7.2512 10.107 7.23591 9.98466 7.31236 9.89291C7.49584 9.66355 7.37352 9.38833 7.4041 9.14368C7.41939 9.08252 7.35823 9.05193 7.29707 9.03664C7.20533 8.99077 7.11358 8.96019 7.02184 8.89903C6.70074 8.73083 6.53254 8.4709 6.54783 8.08863C6.56312 7.72166 6.7619 7.47701 7.06771 7.3394C8.0463 6.89597 9.0249 6.45255 10.0188 6.00912C10.5387 5.77977 11.0585 5.53512 11.5631 5.30576C11.6854 5.2446 11.7925 5.2446 11.9148 5.30576C13.3368 5.96325 14.7588 6.60545 16.1961 7.24765C16.2573 7.27824 16.3491 7.27824 16.3491 7.36998C16.3491 7.43114 16.2573 7.44643 16.1961 7.47701C14.7741 8.11921 13.3674 8.76141 11.9454 9.41891C11.7925 9.48007 11.6702 9.48007 11.5173 9.41891C10.2634 8.83787 8.99432 8.27212 7.74049 7.69108C7.58759 7.62992 7.44997 7.55346 7.26649 7.61463C7.02184 7.69108 6.88422 7.84398 6.83835 8.07334C6.79248 8.3027 6.91481 8.48619 7.11358 8.60851C7.20533 8.65438 7.29707 8.70025 7.41939 8.70025Z" fill="#013954"/>
<path d="M7.95436 8.99072C8.56598 9.26595 9.16231 9.54118 9.77393 9.81641C10.3703 10.0916 10.9819 10.3669 11.5782 10.6421C11.7005 10.7033 11.8076 10.688 11.9299 10.6421C13.3366 9.99989 14.7281 9.35769 16.1348 8.73078C16.2112 8.7002 16.2877 8.66962 16.3641 8.63904C16.4406 8.8684 16.3641 8.97543 16.1501 9.06717C15.6914 9.26595 15.2479 9.48002 14.8045 9.67879C14.6822 9.72466 14.6363 9.78583 14.6516 9.92344C14.6669 10.2751 14.6516 10.6268 14.6516 10.9938C14.6516 11.162 14.6057 11.269 14.4528 11.3607C12.6486 12.4464 10.829 12.4464 9.0247 11.3607C8.88708 11.2843 8.82592 11.1773 8.82592 11.0091C8.84121 10.6421 8.82592 10.2904 8.82592 9.92344C8.82592 9.80112 8.78005 9.73996 8.67302 9.69408C8.50482 9.63292 8.35192 9.52589 8.18372 9.48002C7.96965 9.37298 7.87791 9.23537 7.95436 8.99072Z" fill="#013954"/>
<path d="M8.07624 2.79802C7.98449 2.79802 7.92333 2.79802 7.87746 2.79802C7.83159 2.79802 7.75514 2.81331 7.63281 2.8286C7.63281 2.72157 7.66339 2.59925 7.72456 2.46163C7.78572 2.32402 7.84688 2.20169 7.92333 2.07937C7.99978 1.95704 8.09153 1.85001 8.18327 1.77356C8.27501 1.68182 8.35147 1.65123 8.41263 1.65123C8.61141 1.65123 8.87134 1.7124 9.17715 1.85001C9.48296 1.97234 9.80407 2.15582 10.1099 2.38518C10.431 2.61454 10.7215 2.87448 10.9814 3.18029C11.2567 3.4861 11.4402 3.8072 11.5625 4.15888L11.5931 4.06714C11.6695 3.74603 11.746 3.45551 11.8377 3.16499C11.9294 2.87448 12.0671 2.61454 12.2353 2.40047C12.4187 2.1864 12.6634 2.00292 12.9845 1.88059C13.3056 1.75827 13.7337 1.68182 14.2536 1.68182C14.4677 1.68182 14.6512 1.68182 14.8041 1.66653C14.9417 1.65123 15.0793 1.63594 15.2169 1.59007C15.3392 1.5442 15.4921 1.48304 15.6298 1.3913C15.7827 1.29955 15.9661 1.17723 16.1802 1.00903C16.2872 1.00903 16.3331 1.03961 16.3331 1.08549C16.3331 1.25368 16.2414 1.42188 16.0732 1.63594C15.905 1.83472 15.6909 2.0335 15.431 2.20169C15.1863 2.38518 14.9264 2.52279 14.6512 2.64512C14.3759 2.76744 14.1466 2.81331 13.9325 2.81331C13.6573 2.81331 13.3973 2.87448 13.1527 2.98151C12.908 3.08854 12.694 3.24145 12.4952 3.40964C12.3117 3.59313 12.1588 3.79191 12.0518 4.00597C11.9447 4.22004 11.8836 4.43411 11.8836 4.63288C11.8836 4.69405 11.853 4.75521 11.7613 4.78579C11.6848 4.83166 11.6236 4.84695 11.5931 4.84695C11.5166 4.84695 11.4249 4.75521 11.3331 4.58701C11.1955 4.32707 10.9967 4.08243 10.7215 3.86836C10.4463 3.65429 10.1557 3.47081 9.84994 3.3179C9.52884 3.16499 9.22303 3.04267 8.90193 2.95093C8.61141 2.84389 8.32089 2.79802 8.07624 2.79802Z" fill="#013954"/>
<path d="M12.388 1.63608C12.2351 1.89602 12.0516 2.07951 11.8681 2.20183C11.6694 2.32416 11.4859 2.38532 11.3024 2.38532C11.1189 2.38532 10.9201 2.32416 10.7214 2.18654C10.5226 2.04893 10.3391 1.86544 10.1709 1.62079V1.55963C10.1709 1.54434 10.1709 1.54434 10.1862 1.52905C10.1862 1.52905 10.2168 1.51376 10.2474 1.51376C10.2779 1.51376 10.3085 1.51376 10.3391 1.52905C10.4614 1.6055 10.5837 1.65138 10.6755 1.69725C10.7672 1.74312 10.859 1.7737 10.9201 1.78899C10.9966 1.81957 11.0577 1.83486 11.1189 1.83486C11.1801 1.83486 11.2412 1.85015 11.3024 1.85015C11.3941 1.85015 11.4706 1.85015 11.5318 1.83486C11.5929 1.83486 11.6541 1.81957 11.7152 1.80428C11.7764 1.78899 11.8223 1.7737 11.8834 1.74312C11.9446 1.71254 12.0058 1.68196 12.0975 1.65138C12.1281 1.63608 12.174 1.62079 12.2045 1.59021C12.2351 1.57492 12.281 1.55963 12.3269 1.52905C12.3422 1.51376 12.3574 1.51376 12.3727 1.51376H12.3574C12.3574 1.51376 12.3727 1.51376 12.388 1.51376C12.4033 1.51376 12.4033 1.51376 12.4186 1.51376C12.4339 1.51376 12.4492 1.51376 12.4492 1.51376C12.4339 1.55963 12.4186 1.59021 12.388 1.63608ZM12.1587 0.59633C12.1587 0.657492 12.1434 0.749235 12.0975 0.856269C12.0516 0.963302 11.9905 1.05505 11.914 1.16208C11.8376 1.25382 11.7458 1.34557 11.6235 1.40673C11.5165 1.48318 11.3941 1.51376 11.2412 1.51376C11.1648 1.51376 11.073 1.49847 10.966 1.46789C10.8743 1.43731 10.7825 1.40673 10.6908 1.36086C10.6143 1.31498 10.5379 1.25382 10.4767 1.17737C10.4155 1.10092 10.385 1.02446 10.385 0.917431C10.385 0.856269 10.4003 0.779816 10.4461 0.672782C10.4767 0.565749 10.5379 0.474006 10.6143 0.366972C10.6908 0.259939 10.7825 0.183486 10.8896 0.107034C10.9966 0.0305811 11.1189 0 11.2565 0C11.333 0 11.4247 0.0152907 11.5318 0.0458717C11.6388 0.0764527 11.7305 0.107034 11.8223 0.152905C11.914 0.198777 11.9905 0.259939 12.0516 0.336391C12.1281 0.428134 12.1587 0.504587 12.1587 0.59633ZM10.9507 0.351682C10.9201 0.351682 10.8896 0.366972 10.8743 0.412844C10.859 0.458715 10.859 0.504587 10.859 0.550458C10.859 0.733945 10.9201 0.88685 11.0577 0.993883C11.1954 1.10092 11.3788 1.16208 11.6082 1.16208C11.6388 1.16208 11.6694 1.14679 11.6847 1.10092C11.7 1.07034 11.7152 1.02446 11.7152 0.963302C11.7152 0.779816 11.6541 0.626911 11.5165 0.519877C11.3788 0.412844 11.1954 0.351682 10.9507 0.351682Z" fill="#013954"/>
<path d="M11.4707 14.6484C12.9539 12.9359 14.9417 12.1713 17.0976 11.8044C18.9631 11.4833 20.8438 11.5444 22.7245 11.7585C22.9233 11.7891 22.9998 11.8196 22.8927 12.0337C22.7092 12.4771 22.541 12.9359 22.3881 13.3793C22.327 13.5781 22.2352 13.5933 22.0517 13.5475C20.4462 13.1193 18.8102 12.9053 17.1435 12.9206C15.4157 12.9511 13.749 13.2417 12.2505 14.1285C11.9753 14.2967 11.7306 14.4802 11.4707 14.6484Z" fill="#013954"/>
<path d="M11.4705 14.6482C9.9873 12.9357 7.99954 12.1712 5.84357 11.8042C3.97813 11.4831 2.0974 11.529 0.216663 11.7583C0.0178865 11.7889 -0.058566 11.8195 0.0484676 12.0335C0.231954 12.477 0.400149 12.9357 0.553055 13.3791C0.614217 13.5779 0.70596 13.5932 0.889446 13.5473C2.49495 13.1192 4.13104 12.9051 5.7977 12.9204C7.52553 12.951 9.1922 13.2415 10.6907 14.1283C10.9659 14.2965 11.2105 14.48 11.4705 14.6482Z" fill="#013954"/>
<path d="M11.3944 15H0.125254C0.0488012 15 0.00292969 14.9388 0.00292969 14.8777V14.2355C0.00292969 14.159 0.0640917 14.1132 0.125254 14.1132H11.3791C11.4555 14.1132 11.5014 14.1743 11.5014 14.2355V14.8777C11.5167 14.9388 11.4555 15 11.3944 15Z" fill="#013954"/>
<path d="M22.8166 15H11.6545C11.5781 15 11.5322 14.9388 11.5322 14.8777V14.2355C11.5322 14.159 11.5934 14.1132 11.6545 14.1132H22.8166C22.8931 14.1132 22.939 14.1743 22.939 14.2355V14.8777C22.939 14.9388 22.8778 15 22.8166 15Z" fill="#013954"/>
<path d="M11.4702 15C11.9262 15 12.2959 14.6303 12.2959 14.1743C12.2959 13.7183 11.9262 13.3486 11.4702 13.3486C11.0142 13.3486 10.6445 13.7183 10.6445 14.1743C10.6445 14.6303 11.0142 15 11.4702 15Z" fill="#013954"/>
</svg>
