<svg width="47" height="51" viewBox="0 0 47 51" fill="none" xmlns="http://www.w3.org/2000/svg">
<g clip-path="url(#clip0_81_50)">
<path d="M46.667 47.559C45.2294 40.1431 40.0859 33.7176 33.2249 30.6265C32.1223 30.1298 30.9748 29.7743 29.8421 29.3561C32.631 27.6369 34.6747 25.0614 35.5831 21.8953C35.7202 21.4174 35.7737 20.9253 35.89 20.4464C35.9088 20.3689 35.9124 20.2169 36.0205 20.2342V21.6464C36.0205 21.9264 36.5205 22.3926 36.7968 22.4731C37.8439 22.7771 38.3374 21.9402 39.1244 21.4715C39.3518 21.4317 40.3153 22.4589 40.8638 22.5257C41.7977 22.6399 42.2926 22.0769 42.3569 21.192C42.4971 19.2652 42.2733 17.1375 42.3202 15.1919C42.156 14.1979 40.9397 14.1658 40.4478 13.4773L40.4452 7.06605C40.4585 6.84216 40.7139 6.88653 40.8551 6.78912C41.6626 6.23373 41.6361 5.07042 40.7756 4.6002L23.546 0L6.11499 4.62825C5.20608 5.27136 5.38399 6.62133 6.4754 6.93192L10.7126 8.03607L10.8319 8.14572L10.8375 16.3837C11.1061 17.2926 10.863 18.2432 10.915 19.2071C11.0847 22.3788 12.5539 25.4067 14.808 27.6017L17.1739 29.3933C8.61285 31.7082 1.8406 39.0237 0.260829 47.7768C0.0666083 48.8539 -0.513507 50.847 1.11112 51L46.1704 50.9612C46.6537 50.7904 46.9983 50.2549 46.9993 49.7459C47.0008 49.1992 46.7786 48.1358 46.667 47.5595V47.559ZM38.5387 16.1129L39.1882 15.811L39.8356 16.1129V18.7083C39.4048 18.6201 38.9659 18.5762 38.5387 18.7083V16.1129ZM36.1734 8.13603L37.928 7.6398V13.5558C37.4957 13.9179 36.8274 14.1316 36.4048 14.4748C36.2825 14.5743 36.2937 14.7211 36.1729 14.739V8.13603H36.1734ZM11.8341 5.6559L23.4695 2.5959L35.1809 5.65539L34.4346 5.93793L23.4695 8.82249C19.7941 7.66989 15.7185 7.03647 12.0905 5.81757C11.9911 5.78391 11.858 5.79462 11.8341 5.65539V5.6559ZM13.2838 15.0822V8.78475L23.547 11.3852L33.6557 8.78475V15.197C30.9039 15.5749 28.1211 16.4128 25.3663 16.7127C23.1519 16.9539 21.3795 16.6913 19.2211 16.318C17.5027 16.0206 15.2969 15.6993 13.6504 15.2505C13.5168 15.2143 13.3782 15.2021 13.2844 15.0827L13.2838 15.0822ZM13.4368 17.7919C17.1805 18.3177 20.9507 19.5855 24.7658 19.3178C27.6537 19.1153 30.6246 18.1591 33.5022 17.7919C34.0426 25.6127 25.7262 31.0962 18.7256 27.3467C15.2765 25.4995 13.1839 21.7189 13.4363 17.7919H13.4368ZM44.2608 48.4781H2.61952C4.36955 38.5443 13.0386 30.9978 23.4695 30.9978C33.9003 30.9978 42.5694 38.5448 44.3195 48.4781H44.2608Z" fill="#E5001A"/>
</g>
<defs>
<clipPath id="clip0_81_50">
<rect width="47" height="51" fill="white"/>
</clipPath>
</defs>
</svg>
