<svg width="15" height="15" viewBox="0 0 15 15" fill="none" xmlns="http://www.w3.org/2000/svg">
<path d="M1.77075 9.93863C0.817134 8.25224 0.586258 6.48553 1.14839 4.62849C1.56999 3.2332 2.38307 2.10893 3.56757 1.2557C5.9767 -0.490928 9.22904 -0.410624 11.5478 1.4665C12.8227 2.49038 13.6056 3.82544 13.8867 5.43154C14.1678 7.03763 13.8767 8.55338 13.0535 9.95871C13.1138 9.99886 13.184 9.98882 13.2443 10.0089C13.2844 10.029 13.3346 10.029 13.3848 10.0491C13.4952 10.0792 13.5555 10.1494 13.5856 10.2599C13.696 10.6915 13.8064 11.1231 13.9269 11.5548C14.0774 12.1069 14.218 12.659 14.3685 13.211C14.4087 13.3817 14.4288 13.5423 14.3384 13.7029C14.2983 13.7732 14.3083 13.8434 14.3384 13.9237C14.4187 14.1044 14.4689 14.3052 14.5191 14.4959C14.5392 14.5662 14.5492 14.6365 14.5392 14.7067C14.5191 14.8974 14.3886 15.0179 14.1879 14.9978C14.1075 14.9878 14.0272 14.9677 13.9469 14.9376C13.0837 14.6164 12.1903 14.4257 11.2768 14.3152C10.5541 14.2349 9.84136 14.2851 9.1387 14.4156C8.83756 14.4658 8.54645 14.526 8.25535 14.6164C8.10478 14.6565 7.96424 14.7067 7.84379 14.8071C7.82371 14.8272 7.7936 14.8473 7.76348 14.8473C7.60287 14.8573 7.43223 14.8874 7.29169 14.7971C7.11101 14.6766 6.90021 14.6164 6.69945 14.5662C5.77594 14.3453 4.8424 14.2349 3.88879 14.2751C3.4973 14.2952 3.11585 14.3453 2.73441 14.4156C2.19235 14.506 1.65029 14.6264 1.12831 14.7669C0.947629 14.8171 0.776982 14.8874 0.596297 14.9376C0.515992 14.9677 0.425649 14.9878 0.335307 14.9777C0.114469 14.9777 -0.0260642 14.8171 0.00405005 14.5963C0.0140881 14.506 0.0442024 14.4156 0.0743166 14.3253C0.124507 14.1647 0.184735 14.0041 0.255002 13.8434C0.275078 13.8033 0.285116 13.7631 0.255002 13.723C0.134545 13.5323 0.154621 13.3315 0.21485 13.1207C0.495916 12.147 0.776982 11.1834 1.04801 10.2097C1.07812 10.1193 1.12831 10.0591 1.21866 10.029C1.3893 9.99886 1.56999 9.97878 1.77075 9.93863ZM7.78356 13.994C7.81367 14.0041 7.83375 13.9739 7.84379 13.9539C8.01443 13.8033 8.2152 13.6728 8.41596 13.5624C9.19893 13.1408 10.0421 12.9199 10.9054 12.8095C11.4575 12.7393 11.9995 12.7292 12.5516 12.7794C12.9833 12.8196 13.4049 12.8999 13.8064 13.0705C13.8666 13.0906 13.9269 13.1207 13.9771 13.1508C13.9971 13.1207 13.9871 13.1006 13.9871 13.0806C13.7562 12.2072 13.5253 11.344 13.2945 10.4706C13.2744 10.3903 13.2342 10.3602 13.1539 10.3402C12.6922 10.2398 12.2204 10.2197 11.7486 10.29C10.6344 10.4606 9.67072 10.9525 8.87771 11.7555C8.35573 12.2875 7.97428 12.8999 7.80364 13.6326C7.80364 13.7631 7.76348 13.8736 7.78356 13.994C7.77352 13.984 7.77352 13.984 7.76348 14.0041V14.0141C7.78356 14.0141 7.7936 14.0041 7.78356 13.994ZM1.76071 7.75033C1.77075 7.81056 1.78079 7.86075 1.79083 7.9009C1.95144 8.57345 2.22246 9.19581 2.59387 9.76798C2.66414 9.8784 2.74444 9.93863 2.87494 9.92859C2.89502 9.92859 2.90505 9.92859 2.92513 9.92859C3.4973 9.99886 4.04939 10.1294 4.58141 10.3602C5.57518 10.7818 6.41838 11.4042 7.04074 12.2875C7.08089 12.3377 7.12105 12.3578 7.18127 12.3678C7.43223 12.3678 7.68318 12.3678 7.92409 12.3478C8.0044 12.3377 8.04455 12.3076 8.09474 12.2474C9.04836 10.8822 10.3633 10.1093 12.0196 9.93863C12.11 9.92859 12.1702 9.89848 12.2204 9.81818C12.652 9.17574 12.9431 8.48311 13.0937 7.73026C13.1037 7.67003 13.1339 7.6098 13.1138 7.53953C13.0837 7.51946 13.0535 7.52949 13.0234 7.52949C12.2304 7.54957 11.4274 7.50942 10.6444 7.37892C9.84136 7.23839 9.06843 7.00751 8.32561 6.65618C7.48242 6.24462 6.74964 5.70256 6.16743 4.95975C6.15739 4.94971 6.15739 4.93967 6.12728 4.93967C6.09716 4.98986 6.05701 5.04005 6.01686 5.09024C5.97671 5.14043 5.94659 5.20066 5.90644 5.25085C5.16362 6.22454 4.22004 6.94729 3.10582 7.43915C2.84483 7.55961 2.5738 7.63991 2.30277 7.70014C2.12208 7.74029 1.9414 7.75033 1.76071 7.75033ZM7.36196 14.0141C7.33185 13.6828 7.2415 13.3917 7.12105 13.1207C6.82994 12.4682 6.38827 11.9362 5.83617 11.5046C4.93274 10.7818 3.89882 10.3602 2.73441 10.2699C2.31281 10.2398 1.89121 10.2699 1.46961 10.3502C1.3893 10.3703 1.34915 10.4004 1.32908 10.4807C1.08816 11.3339 0.83721 12.1972 0.596297 13.0504C0.586258 13.0906 0.566182 13.1207 0.57622 13.1609C0.586258 13.1609 0.596297 13.1508 0.616373 13.1508C1.12831 12.9199 1.67037 12.8296 2.2325 12.7794C2.74444 12.7393 3.26642 12.7493 3.77837 12.7995C4.51115 12.8698 5.22385 13.0103 5.91648 13.2512C6.34811 13.4018 6.76971 13.5925 7.14112 13.8535C7.20135 13.8936 7.27162 13.9438 7.36196 14.0141ZM0.766944 14.0342C0.957667 13.9237 1.13835 13.8434 1.33911 13.7832C2.08193 13.5624 2.85486 13.472 3.6278 13.452C3.9189 13.4419 4.19997 13.472 4.49107 13.4921C4.85244 13.5222 5.22385 13.5724 5.58522 13.6427C5.95663 13.7129 6.32804 13.8334 6.68941 13.9639C6.58903 13.8936 6.47861 13.8434 6.37823 13.7933C5.48484 13.3817 4.54126 13.191 3.56757 13.1107C3.04559 13.0705 2.51357 13.0705 1.99159 13.1307C1.62018 13.1809 1.24877 13.2512 0.897439 13.3817C0.78702 13.4218 0.686639 13.472 0.586258 13.5323C0.546106 13.5523 0.52603 13.5724 0.556144 13.6226C0.626411 13.7631 0.686639 13.8936 0.766944 14.0342ZM8.41596 13.9639C8.43603 13.9739 8.44607 13.9639 8.46615 13.9539C9.10858 13.6929 9.78114 13.5624 10.4637 13.5021C11.056 13.452 11.6382 13.462 12.2304 13.5523C12.5818 13.6126 12.9331 13.6728 13.2744 13.7832C13.4751 13.8434 13.6558 13.9438 13.8466 14.0542C13.9068 13.9137 13.967 13.7832 14.0272 13.6527C14.0473 13.6025 14.0373 13.5724 13.9971 13.5423C13.8867 13.472 13.7663 13.4118 13.6458 13.3717C13.2242 13.211 12.7825 13.1307 12.3308 13.1107C11.3069 13.0605 10.3132 13.191 9.3495 13.5222C9.01824 13.6427 8.70706 13.7732 8.41596 13.9639Z" fill="#013954"/>
<path d="M7.78403 13.994C7.78403 14.0041 7.78403 14.0141 7.77399 14.0141C7.77399 14.0141 7.76395 14.0041 7.77399 14.0041C7.77399 13.994 7.78403 13.994 7.78403 13.994Z" fill="#013954"/>
<path d="M9.31915 8.98501C8.91763 8.98501 8.60645 8.66379 8.60645 8.26226C8.60645 7.87078 8.92766 7.54956 9.32919 7.54956C9.73071 7.54956 10.0519 7.88082 10.0519 8.28234C10.0419 8.67383 9.72067 8.99504 9.31915 8.98501Z" fill="#013954"/>
<path d="M6.07705 8.30242C6.07705 8.70395 5.75583 9.0352 5.35431 9.02517C4.96282 9.02517 4.6416 8.69391 4.6416 8.30242C4.6416 7.9009 4.96282 7.58972 5.36434 7.58972C5.76587 7.58972 6.07705 7.9009 6.07705 8.30242Z" fill="#013954"/>
<path d="M6.05664 9.85828C6.09679 9.85828 6.11687 9.89843 6.14698 9.9185C6.49832 10.2397 6.92995 10.3602 7.3917 10.31C7.70288 10.2799 8.00403 10.1594 8.27506 9.99881C8.30517 9.97873 8.33528 9.94862 8.38547 9.94862C8.34532 10.049 8.28509 10.1393 8.2349 10.2196C8.05422 10.5007 7.80327 10.7115 7.50212 10.852C7.20098 10.9825 6.91992 10.9424 6.65893 10.7517C6.37786 10.5409 6.1771 10.2498 6.06668 9.90847C6.05664 9.89843 6.05664 9.87835 6.05664 9.85828Z" fill="#013954"/>
</svg>
