<svg width="75" height="75" viewBox="0 0 75 75" fill="none" xmlns="http://www.w3.org/2000/svg">
<rect width="75" height="75" rx="37.5" fill="#F34800" fill-opacity="0.1"/>
<g clip-path="url(#clip0_80_15)">
<path d="M56.6966 42.0667C56.9909 41.377 58.8149 40.0097 59.3786 39.073C60.9967 36.3824 58.9407 35.0047 58.9407 32.7057C58.9407 30.2675 61.0534 29.1142 59.2962 26.2311C58.7131 25.2741 56.9943 24.0426 56.6966 23.3447C55.9955 21.7007 56.7723 19.6954 55.1241 18.1252C53.969 17.0246 52.0243 17.0455 50.9331 16.2469C50.1619 15.6826 49.5604 14.0002 48.8482 13.228C46.6336 10.8278 44.6076 12.5487 42.225 12.0603C41.0955 11.8288 39.7289 10.2618 38.1681 10.0506C35.2791 9.65902 34.6381 11.6858 32.6199 12.0592C30.1789 12.5113 28.2954 10.8217 26.1014 13.3308C25.4437 14.0827 24.875 15.6018 24.1856 16.1413C23.0282 17.0466 20.9784 16.9482 19.7169 18.3094C18.2524 19.8896 18.983 21.9284 18.2491 23.4442C17.9058 24.1537 16.4913 25.1118 15.9293 25.8554C13.7826 28.6962 16.0234 30.2109 16.0234 32.7062C16.0234 34.9046 14.0948 36.4352 15.5454 38.996C16.1525 40.068 17.8318 41.1064 18.2491 41.9682C19.1689 43.869 18.0933 47.2966 21.3361 48.1326L15.5165 58.2009C15.4024 59.2976 16.1419 59.7904 17.2225 59.6887C18.0443 59.6111 22.7311 58.328 23.0371 58.5909C23.5401 59.7739 24.7999 67.1181 27.1347 64.4011L33.3244 53.7679C33.5959 53.6409 35.7226 55.1374 36.3736 55.2859C38.6655 55.8084 39.8897 54.5286 41.7904 53.6744L47.8995 64.4022C48.2322 64.8378 48.8198 65.0996 49.3723 64.9417C50.4601 64.631 51.5808 59.7486 52.002 58.5953C52.4405 58.224 57.1918 59.7382 58.1756 59.7233C58.8043 59.7134 59.4592 59.2817 59.5655 58.631C59.738 57.5723 54.3663 49.6231 53.6985 48.0424C56.8568 47.312 55.8809 43.9796 56.6966 42.0667ZM26.4753 60.6451L24.9134 56.4541C24.0242 54.8503 20.921 56.7137 19.4359 56.5058L23.627 48.9807C24.8522 49.4939 25.1961 51.0014 26.0185 51.9749C27.281 53.4698 28.5597 53.6244 30.4755 53.4979L26.4759 60.6446L26.4753 60.6451ZM41.5122 50.953C40.2992 51.2968 38.5353 52.8648 37.6016 52.9264C36.343 53.0095 34.2052 50.6951 32.083 50.6681C31.0898 50.6555 29.4082 51.2577 28.5218 50.8183C27.562 50.3425 26.8498 48.2003 25.8955 47.3923C24.702 46.3814 21.734 46.1647 21.3055 44.7798C20.7836 43.093 21.2605 41.7295 20.0057 40.0438C19.4165 39.2518 17.5446 38.0451 17.5196 37.0391C17.4946 36.0354 18.6809 34.0548 18.6875 32.7051C18.6942 31.3098 17.3593 29.0399 17.5636 28.0455C17.7283 27.2447 19.9807 25.6827 20.5527 24.4018C21.1214 23.1285 20.98 20.873 21.5203 20.0898C22.0211 19.3643 24.4605 19.0063 25.4303 18.31C26.6918 17.4036 27.6911 14.8791 28.6203 14.5029C29.6091 14.1025 31.7369 14.8873 33.3394 14.4616C34.6342 14.1173 36.156 12.6884 37.0914 12.513C38.5081 12.2473 40.1907 14.1619 41.6563 14.5023C43.127 14.8439 45.7277 14.0541 46.6492 14.6492C47.5094 15.2047 48.1242 17.1159 49.0362 17.9332C50.1547 18.9353 52.865 19.3676 53.4075 20.0095C54.0363 20.7525 53.8427 23.1984 54.4264 24.4584C54.995 25.686 57.3409 27.1776 57.4478 28.2122C57.564 29.3375 56.3471 31.2636 56.3471 32.7046C56.3471 34.1456 57.564 36.0717 57.4478 37.197C57.3409 38.2315 54.995 39.7231 54.4264 40.9507C53.8555 42.1833 54.0157 44.7111 53.4098 45.4019C52.9184 45.9618 50.173 46.5426 49.2254 47.2867C47.9367 48.2987 47.4999 50.9057 45.77 50.9827C44.1998 51.0526 43.2611 50.4569 41.5128 50.9525L41.5122 50.953ZM55.601 56.5058C54.2399 56.662 51.7115 55.3145 50.5781 55.9641C49.9059 56.3491 49.2243 59.3493 48.8415 60.27C48.7669 60.4493 48.8215 60.7012 48.5616 60.6446L44.562 53.4979C46.1005 53.5798 47.5138 53.4968 48.6612 52.3737C49.2226 51.8248 50.7077 48.8405 51.3148 48.9796L55.601 56.5053V56.5058Z" fill="#F34800"/>
<path d="M50.2463 39.2644C55.4183 29.2285 47.4574 17.5389 36.1486 18.5558C26.4362 19.4292 20.4718 29.5327 24.3518 38.3827C29.1231 49.2667 44.825 49.7831 50.2463 39.2644ZM27.3314 38.6357C22.8733 30.8538 28.175 21.1716 37.296 20.9912C46.423 20.8108 52.2767 30.6431 47.7607 38.501C43.3527 46.1713 31.7495 46.3467 27.332 38.6352L27.3314 38.6357Z" fill="#F34800"/>
<path d="M40.7512 29.134C39.7291 28.0664 39.0369 23.6191 37.0849 24.1768C36.1384 24.4474 34.9638 28.282 34.2855 29.134C33.1443 29.4904 27.7759 29.1373 28.4569 31.2982C28.7964 32.3762 32.2056 34.5278 32.3336 35.173C32.2768 36.4693 31.1462 39.4245 31.5101 40.5245C32.2373 42.7245 36.292 39.0752 37.5851 38.8602C38.7809 39.3227 43.3976 43.011 43.6018 40.0361C43.6719 39.0158 42.5029 35.9694 42.6887 35.1884C43.2212 34.134 46.2871 32.2767 46.4624 31.3824C46.9526 28.881 42.2742 29.7082 40.7507 29.134H40.7512ZM40.0245 34.4442C39.8743 35.1917 40.4524 36.6932 40.5643 37.5017C40.3033 37.7101 38.5366 36.394 38.0959 36.2741C36.6665 35.8852 35.8229 37.1277 34.5704 37.5055C34.344 36.5216 35.2548 35.2516 34.9677 34.3001C34.7051 33.43 33.0469 32.638 32.5695 31.8614C33.4965 31.6739 35.1474 31.8031 35.9086 31.3026C36.5763 30.8632 36.9786 29.2121 37.3309 28.4729C38.1555 29.0471 38.3413 30.7829 39.1292 31.3026C39.8893 31.8037 41.3716 31.6304 42.2775 31.8614C41.8535 32.6556 40.1903 33.6209 40.0245 34.4448V34.4442Z" fill="#F34800"/>
</g>
<defs>
<clipPath id="clip0_80_15">
<rect width="45" height="55" fill="white" transform="translate(15 10)"/>
</clipPath>
</defs>
</svg>
